<?xml version="1.0" encoding="UTF-8" standalone="no"?>
<!-- Created with Inkscape (http://www.inkscape.org/) -->

<svg
   width="210mm"
   height="297mm"
   viewBox="0 0 210 297"
   version="1.1"
   id="svg1"
   inkscape:version="1.4.3 (fcd0343856, 2026-01-01)"
   sodipodi:docname="logo.svg"
   xmlns:inkscape="http://www.inkscape.org/namespaces/inkscape"
   xmlns:sodipodi="http://sodipodi.sourceforge.net/DTD/sodipodi-0.dtd"
   xmlns="http://www.w3.org/2000/svg"
   xmlns:svg="http://www.w3.org/2000/svg">
  <sodipodi:namedview
     id="namedview1"
     pagecolor="#ffffff"
     bordercolor="#000000"
     borderopacity="0.25"
     inkscape:showpageshadow="2"
     inkscape:pageopacity="0.0"
     inkscape:pagecheckerboard="0"
     inkscape:deskcolor="#d1d1d1"
     inkscape:document-units="mm"
     inkscape:zoom="2"
     inkscape:cx="208.5"
     inkscape:cy="278.5"
     inkscape:window-width="3440"
     inkscape:window-height="1403"
     inkscape:window-x="0"
     inkscape:window-y="0"
     inkscape:window-maximized="1"
     inkscape:current-layer="layer1"
     inkscape:export-bgcolor="#ffffffff" />
  <defs
     id="defs1" />
  <g
     inkscape:groupmode="layer"
     id="layer2"
     inkscape:label="guides"
     style="display:none">
    <rect
       style="fill:#ed0000;fill-opacity:1;stroke-width:0.264583"
       id="rect3-9"
       width="4"
       height="4"
       x="40.373196"
       y="120.91885"
       inkscape:label="text to bubble bottom left" />
    <rect
       style="fill:#ed0000;fill-opacity:1;stroke-width:0.264583"
       id="rect3-1"
       width="4"
       height="4"
       x="40.361679"
       y="101.13519"
       inkscape:label="text to bubble top left" />
    <rect
       style="fill:#ed0000;fill-opacity:1;stroke-width:0.264583"
       id="rect3"
       width="4"
       height="4"
       x="84"
       y="101.15"
       inkscape:label="text to bubble top right " />
    <rect
       style="display:inline;fill:#008000;fill-opacity:1;stroke-width:0.234645"
       id="rect1-7"
       width="47.650002"
       height="23.75"
       x="40.332424"
       y="105.05612"
       rx="7.8649931"
       inkscape:label="tail curvature" />
    <rect
       style="fill:#ed0000;fill-opacity:1;stroke-width:0.264583"
       id="rect3-5"
       width="4"
       height="4"
       x="84.016853"
       y="120.88919"
       inkscape:label="text to bubble bottom right" />
  </g>
  <g
     inkscape:label="Layer 1"
     inkscape:groupmode="layer"
     id="layer1"
     style="display:inline">
    <path
       id="rect1"
       style="display:inline;fill:#000000;stroke-width:0.234645"
       inkscape:label="bubble"
       d="m 48.215145,101.1499 c -4.357206,0 -7.865153,3.50795 -7.865153,7.86515 v 8.02018 c 0,0.11588 0.0023,0.23109 0.0072,0.34572 -0.01047,3.66566 -0.326023,6.02597 1.49965,8.2181 2.391395,3.43929 5.904006,3.29126 7.32255,3.21996 1.067754,0.0106 -2.172505,-1.73896 -0.313676,-3.34295 0.892164,-0.70987 2.643704,-0.51519 3.847827,-0.57619 H 80.13516 c 4.357206,0 7.864637,-3.50743 7.864637,-7.86464 v -8.02018 c 0,-4.3572 -3.507431,-7.86515 -7.864637,-7.86515 z m 15.096753,3.53673 c 3.544715,0 5.350578,2.03209 5.350578,4.53823 0,1.49013 -0.767475,2.59664 -1.873788,3.38687 -0.158042,0.11288 -0.157884,0.27092 0.02274,0.36122 1.399824,0.69991 2.190047,2.00948 2.190047,3.65766 0,2.66418 -1.828771,4.71857 -5.689575,4.71857 -3.860804,0 -5.689575,-2.05439 -5.689575,-4.71857 0,-1.64818 0.790223,-2.98033 2.190047,-3.65766 0.180624,-0.0903 0.180265,-0.24834 0.02222,-0.36122 -1.151468,-0.74507 -1.873788,-1.89674 -1.873788,-3.38687 0,-2.50614 1.80638,-4.53823 5.351095,-4.53823 z m -18.671729,0.42943 h 4.83123 c 3.409248,0 6.050793,2.07701 6.050793,5.59915 0,2.48356 -1.309075,4.22187 -3.295922,5.01209 -0.15804,0.0677 -0.180744,0.18064 -0.09043,0.29353 l 3.386356,4.56096 c 0.135467,0.18062 0.06817,0.33848 -0.157613,0.33848 h -2.709395 c -0.270934,0 -0.384041,-0.0452 -0.542086,-0.29352 l -2.912484,-4.08658 C 49.065147,116.35959 48.9749,116.31435 48.7717,116.31435 h -1.512569 c -0.06774,0 -0.135392,0.0451 -0.135392,0.13539 v 4.19974 c -10e-7,0.15805 -0.113258,0.27079 -0.271302,0.27079 h -2.212268 c -0.158044,0 -0.271301,-0.11274 -0.271301,-0.27079 v -15.26263 c 0,-0.15805 0.113257,-0.27079 0.271301,-0.27079 z m 27.612268,0 h 2.438611 c 0.248356,0 0.383881,0.0677 0.519348,0.29353 l 5.892664,10.40815 c 0.06773,0.13542 0.15813,0.0905 0.15813,-0.045 v -10.38593 c 0,-0.15805 0.112739,-0.27079 0.270784,-0.27079 h 2.212785 c 0.158045,0 0.270785,0.11274 0.270785,0.27079 v 15.26263 c 0,0.15805 -0.11274,0.27079 -0.270785,0.27079 h -2.438611 c -0.248356,0 -0.383881,-0.0677 -0.519348,-0.29352 L 74.894137,110.2186 c -0.06773,-0.13552 -0.15813,-0.0905 -0.15813,0.045 v 10.38593 c 0,0.15805 -0.11274,0.27079 -0.270785,0.27079 h -2.212785 c -0.158045,0 -0.270784,-0.11274 -0.270784,-0.27079 V 105.3869 c 0,-0.15805 0.112739,-0.27079 0.270784,-0.27079 z m -8.940539,2.16731 c -1.557868,0 -2.529045,0.813 -2.529045,2.14509 0,1.33209 0.971177,2.14457 2.529045,2.14457 1.557868,0 2.528528,-0.81248 2.528528,-2.14457 0,-1.33209 -0.97066,-2.14509 -2.528528,-2.14509 z m -16.052767,0.45166 c -0.09031,0 -0.135392,0.0451 -0.135392,0.13539 v 5.68957 c 0,0.0678 0.04508,0.1354 0.135392,0.1354 h 2.054655 c 1.85138,0 3.31866,-0.97076 3.31866,-2.98018 0,-2.00942 -1.46728,-2.98018 -3.31866,-2.98018 z m 16.052767,6.41201 c -1.896535,0 -2.844788,0.99319 -2.844788,2.3027 0,1.30951 0.948253,2.30322 2.844788,2.30322 1.896535,0 2.844787,-0.99371 2.844787,-2.30322 0,-1.30951 -0.948252,-2.3027 -2.844787,-2.3027 z" />
    <path
       id="rect1-3"
       style="display:inline;fill:#000000;fill-opacity:1;stroke:#ffffff;stroke-width:0.264583;stroke-dasharray:none;stroke-opacity:1"
       inkscape:label="bubble"
       d="m 137.95134,28.239682 c -4.35721,0 -7.86515,3.50795 -7.86515,7.86515 v 8.02018 c 0,0.11588 0.002,0.23109 0.007,0.34572 -0.0105,3.66566 -0.32603,6.02597 1.49965,8.2181 2.39139,3.43929 5.904,3.29126 7.32255,3.21996 1.06775,0.0106 -2.17251,-1.73896 -0.31368,-3.34295 0.89216,-0.70987 2.6437,-0.51519 3.84783,-0.57619 h 27.42161 c 4.35721,0 7.86464,-3.50743 7.86464,-7.86464 v -8.02018 c 0,-4.3572 -3.50743,-7.86515 -7.86464,-7.86515 z m 15.09675,3.53673 c 3.54472,0 5.35058,2.03209 5.35058,4.53823 0,1.49013 -0.76748,2.59664 -1.87379,3.38687 -0.15804,0.11288 -0.15788,0.27092 0.0227,0.36122 1.39982,0.69991 2.19005,2.00948 2.19005,3.65766 0,2.66418 -1.82877,4.71857 -5.68958,4.71857 -3.8608,0 -5.68957,-2.05439 -5.68957,-4.71857 0,-1.64818 0.79022,-2.98033 2.19005,-3.65766 0.18062,-0.0903 0.18026,-0.24834 0.0222,-0.36122 -1.15146,-0.74507 -1.87378,-1.89674 -1.87378,-3.38687 0,-2.50614 1.80638,-4.53823 5.35109,-4.53823 z m -18.67173,0.42943 h 4.83123 c 3.40925,0 6.05079,2.07701 6.05079,5.59915 0,2.48356 -1.30907,4.22187 -3.29592,5.01209 -0.15804,0.0677 -0.18074,0.18064 -0.0904,0.29353 l 3.38636,4.56096 c 0.13547,0.18062 0.0682,0.33848 -0.15761,0.33848 h -2.7094 c -0.27093,0 -0.38404,-0.0452 -0.54208,-0.29352 l -2.91249,-4.08658 c -0.13547,-0.18058 -0.22572,-0.22582 -0.42892,-0.22582 h -1.51257 c -0.0677,0 -0.13539,0.0451 -0.13539,0.13539 v 4.19974 c 0,0.15805 -0.11326,0.27079 -0.2713,0.27079 h -2.21227 c -0.15804,0 -0.2713,-0.11274 -0.2713,-0.27079 v -15.26263 c 0,-0.15805 0.11326,-0.27079 0.2713,-0.27079 z m 27.61227,0 h 2.43861 c 0.24836,0 0.38388,0.0677 0.51935,0.29353 l 5.89266,10.40815 c 0.0677,0.13542 0.15813,0.0905 0.15813,-0.045 v -10.38593 c 0,-0.15805 0.11274,-0.27079 0.27079,-0.27079 h 2.21278 c 0.15805,0 0.27079,0.11274 0.27079,0.27079 v 15.26263 c 0,0.15805 -0.11274,0.27079 -0.27079,0.27079 h -2.43861 c -0.24836,0 -0.38388,-0.0677 -0.51935,-0.29352 l -5.89266,-10.40811 c -0.0677,-0.13552 -0.15813,-0.0905 -0.15813,0.045 v 10.38593 c 0,0.15805 -0.11274,0.27079 -0.27079,0.27079 h -2.21278 c -0.15805,0 -0.27078,-0.11274 -0.27078,-0.27079 v -15.26263 c 0,-0.15805 0.11273,-0.27079 0.27078,-0.27079 z m -8.94054,2.16731 c -1.55787,0 -2.52904,0.813 -2.52904,2.14509 0,1.33209 0.97117,2.14457 2.52904,2.14457 1.55787,0 2.52853,-0.81248 2.52853,-2.14457 0,-1.33209 -0.97066,-2.14509 -2.52853,-2.14509 z m -16.05277,0.45166 c -0.0903,0 -0.13539,0.0451 -0.13539,0.13539 v 5.68957 c 0,0.0678 0.0451,0.1354 0.13539,0.1354 h 2.05466 c 1.85138,0 3.31866,-0.97076 3.31866,-2.98018 0,-2.00942 -1.46728,-2.98018 -3.31866,-2.98018 z m 16.05277,6.41201 c -1.89653,0 -2.84479,0.99319 -2.84479,2.3027 0,1.30951 0.94826,2.30322 2.84479,2.30322 1.89654,0 2.84479,-0.99371 2.84479,-2.30322 0,-1.30951 -0.94825,-2.3027 -2.84479,-2.3027 z"
       inkscape:export-filename="black logo.png"
       inkscape:export-xdpi="96"
       inkscape:export-ydpi="96" />
    <rect
       style="display:none;fill:#8800aa;fill-opacity:1;stroke-width:0.264583"
       id="rect4"
       width="10"
       height="6.3000002"
       x="124.67965"
       y="27.757938"
       transform="rotate(54.451292)"
       inkscape:label="r to bubble tail" />
    <text
       xml:space="preserve"
       style="font-style:normal;font-variant:normal;font-weight:bold;font-stretch:normal;font-size:17.6389px;font-family:'Berlin Type';-inkscape-font-specification:'Berlin Type Bold';writing-mode:lr-tb;direction:ltr;fill:#8800aa;fill-opacity:1;stroke-width:0.264583"
       x="9.5415201"
       y="86.715591"
       id="text4"><tspan
         sodipodi:role="line"
         id="tspan4"
         style="font-size:17.6389px;stroke-width:0.264583"
         x="9.5415201"
         y="86.715591">workbench</tspan></text>
    <text
       xml:space="preserve"
       style="font-style:normal;font-variant:normal;font-weight:bold;font-stretch:normal;font-size:17.6389px;font-family:'Berlin Type';-inkscape-font-specification:'Berlin Type Bold';writing-mode:lr-tb;direction:ltr;display:inline;fill:#8800aa;fill-opacity:1;stroke-width:0.264583"
       x="97.024254"
       y="19.842735"
       id="text4-2"><tspan
         sodipodi:role="line"
         id="tspan4-9"
         style="font-size:17.6389px;stroke-width:0.264583"
         x="97.024254"
         y="19.842735">solid 4 coloring</tspan></text>
    <rect
       style="display:inline;fill:#000000;stroke-width:0.234645"
       id="rect1-5"
       width="47.650002"
       height="23.75"
       x="8.7509851"
       y="46.302082"
       rx="7.8649931"
       inkscape:label="bubble" />
    <path
       style="font-weight:bold;font-size:22.5778px;font-family:'Berlin Type';-inkscape-font-specification:'Berlin Type Bold';display:inline;fill:#ffffff;stroke-width:0.264583"
       d="M 15.524484,65.80147 V 61.602 c 0,-0.0903 0.0677,-0.13547 0.13547,-0.13547 h 1.51271 c 0.2032,0 0.29351,0.0452 0.42898,0.22578 l 2.91253,4.08658 c 0.15805,0.24836 0.27094,0.29352 0.54187,0.29352 h 2.70934 c 0.22578,0 0.29351,-0.15805 0.15804,-0.33867 l -3.38667,-4.56072 c -0.0903,-0.11289 -0.0677,-0.22577 0.0903,-0.29351 1.98685,-0.79022 3.29636,-2.52871 3.29636,-5.01227 0,-3.52214 -2.6416,-5.59929 -6.05085,-5.59929 h -4.83165 c -0.15804,0 -0.27093,0.11288 -0.27093,0.27093 v 15.26259 c 0,0.15805 0.11289,0.27094 0.27093,0.27094 h 2.21263 c 0.15804,0 0.27093,-0.11289 0.27093,-0.27094 z m 0.13547,-12.9145 h 2.05458 c 1.85138,0 3.31893,0.97085 3.31893,2.98027 0,2.00942 -1.46755,2.98027 -3.31893,2.98027 h -2.05458 c -0.0903,0 -0.13547,-0.0677 -0.13547,-0.13547 v -5.6896 c 0,-0.0903 0.0452,-0.13547 0.13547,-0.13547 z m 16.05281,13.61441 c 3.8608,0 5.6896,-2.05458 5.6896,-4.71876 0,-1.64818 -0.79022,-2.95769 -2.19004,-3.6576 -0.18062,-0.0903 -0.18062,-0.24836 -0.0226,-0.36124 1.10631,-0.79023 1.87396,-1.89654 1.87396,-3.38667 0,-2.50614 -1.80623,-4.53814 -5.35094,-4.53814 -3.54472,0 -5.35094,2.032 -5.35094,4.53814 0,1.49013 0.72249,2.6416 1.87396,3.38667 0.15804,0.11288 0.15804,0.27093 -0.0226,0.36124 -1.39983,0.67733 -2.19005,2.00942 -2.19005,3.6576 0,2.66418 1.8288,4.71876 5.6896,4.71876 z m 0,-2.59644 c -1.89654,0 -2.8448,-0.99343 -2.8448,-2.30294 0,-1.30951 0.94826,-2.30293 2.8448,-2.30293 1.89653,0 2.8448,0.99342 2.8448,2.30293 0,1.30951 -0.94827,2.30294 -2.8448,2.30294 z m 0,-7.17974 c -1.55787,0 -2.52872,-0.8128 -2.52872,-2.14489 0,-1.33209 0.97085,-2.1449 2.52872,-2.1449 1.55787,0 2.52871,0.81281 2.52871,2.1449 0,1.33209 -0.97084,2.14489 -2.52871,2.14489 z m 17.7913,4.24462 -5.8928,-10.40836 c -0.13547,-0.22578 -0.27094,-0.29351 -0.51929,-0.29351 h -2.43841 c -0.15804,0 -0.27093,0.11288 -0.27093,0.27093 v 15.26259 c 0,0.15805 0.11289,0.27094 0.27093,0.27094 h 2.21263 c 0.15804,0 0.27093,-0.11289 0.27093,-0.27094 V 55.41568 c 0,-0.13546 0.0903,-0.18062 0.15805,-0.0451 l 5.8928,10.40836 c 0.13547,0.22578 0.27094,0.29352 0.51929,0.29352 h 2.4384 c 0.15805,0 0.27094,-0.11289 0.27094,-0.27094 V 50.53888 c 0,-0.15805 -0.11289,-0.27093 -0.27094,-0.27093 h -2.21262 c -0.15805,0 -0.27093,0.11288 -0.27093,0.27093 v 10.38579 c 0,0.13546 -0.0903,0.18062 -0.15805,0.0452 z"
       id="text1"
       aria-label="R8N"
       inkscape:label="text" />
    <path
       id="path3"
       style="display:inline;stroke-width:0.264583"
       inkscape:transform-center-x="-0.0086244869"
       inkscape:transform-center-y="0.35011753"
       d="m 17.580404,73.9711 c -1.41854,0.0713 -4.93129,0.2191 -7.32268,-3.22019 -1.8418302,-2.21152 -1.5040702,-4.59392 -1.4991502,-8.3154 0,0 1.9230002,2.52069 4.2131902,4.02436 1.9016,1.24854 4.18346,1.52717 4.66784,1.53197 1.06776,0.0106 4.83406,1.92848 3.77192,2.03803 -1.19415,0.12317 -2.84452,-0.2077 -4.145,0.59823 -1.85883,1.60399 1.38164,3.35357 0.31388,3.343 z"
       sodipodi:nodetypes="cccscscc" />
  </g>
</svg>
